<svg xmlns="http://www.w3.org/2000/svg" width="27.406" height="26.762" viewBox="0 0 27.406 26.762">
  <g id="_2_User" data-name="2 User" transform="translate(0.75 0.75)">
    <path id="Stroke_1" data-name="Stroke 1" d="M9.592,0c5.171,0,9.592.8,9.592,4.017s-4.391,4.04-9.592,4.04C4.419,8.058,0,7.26,0,4.046S4.389,0,9.592,0Z" transform="translate(0 17.204)" fill="none" stroke="#000" stroke-linecap="round" stroke-linejoin="round" stroke-miterlimit="10" stroke-width="1.5"/>
    <path id="Stroke_3" data-name="Stroke 3" d="M6.149,12.619A6.231,6.231,0,0,1,0,6.309,6.231,6.231,0,0,1,6.149,0,6.23,6.23,0,0,1,12.3,6.309a6.21,6.21,0,0,1-6.1,6.309Z" transform="translate(3.443 0)" fill="none" stroke="#000" stroke-linecap="round" stroke-linejoin="round" stroke-miterlimit="10" stroke-width="1.5"/>
    <path id="Stroke_5" data-name="Stroke 5" d="M0,9.379A4.711,4.711,0,0,0,3.977,4.685,4.714,4.714,0,0,0,.105,0" transform="translate(19.253 1.603)" fill="none" stroke="#000" stroke-linecap="round" stroke-linejoin="round" stroke-miterlimit="10" stroke-width="1.5"/>
    <path id="Stroke_7" data-name="Stroke 7" d="M0,0C2.174.332,3.692,1.115,3.692,2.727a2.45,2.45,0,0,1-1.87,2.279" transform="translate(22.214 16.522)" fill="none" stroke="#000" stroke-linecap="round" stroke-linejoin="round" stroke-miterlimit="10" stroke-width="1.5"/>
  </g>
</svg>
