<svg xmlns="http://www.w3.org/2000/svg" width="94.484" height="24" viewBox="0 0 94.484 24"><defs><style>.a{fill:#c1c1c1;font-size:17px;font-family:Poppins-Regular, Poppins;letter-spacing:0.03em;}.b{fill:none;stroke:#7c828a;stroke-linecap:round;stroke-linejoin:round;stroke-miterlimit:10;stroke-width:1.5px;}</style></defs><g transform="translate(-1676.516 -292)"><text class="a" transform="translate(1701 310)"><tspan x="0" y="0">Suporte</tspan></text><g transform="translate(1677.299 296.12)"><g transform="translate(0 0)"><path class="b" d="M.5,2.18V0" transform="translate(7.446 9.789)"/><path class="b" d="M13.27,0a2.623,2.623,0,0,1,2.621,2.63V5.587a15.921,15.921,0,0,1-7.95,1.985A15.887,15.887,0,0,1,0,5.587V2.621A2.623,2.623,0,0,1,2.63,0Z" transform="translate(0 2.218)"/><path class="b" d="M6.016,2.214V1.9A1.9,1.9,0,0,0,4.117,0H1.9A1.9,1.9,0,0,0,0,1.9v.315" transform="translate(4.938)"/><path class="b" d="M0,0,.162,2.156A2.787,2.787,0,0,0,2.94,4.733h9.969a2.787,2.787,0,0,0,2.778-2.577L15.849,0" transform="translate(0.021 10.944)"/></g></g></g></svg>