<svg xmlns="http://www.w3.org/2000/svg" xmlns:xlink="http://www.w3.org/1999/xlink" width="16.982" height="16.641" viewBox="0 0 16.982 16.641"><defs><style>.a{fill:url(#a);}.b{fill:none;stroke:#fff;stroke-linecap:round;stroke-linejoin:round;stroke-width:1.2px;}</style><linearGradient id="a" x1="0.257" y1="0.199" x2="0.825" y2="0.815" gradientUnits="objectBoundingBox"><stop offset="0" stop-color="#006fd2"/><stop offset="1" stop-color="#33a0ff"/></linearGradient></defs><g transform="translate(0 0)"><path class="a" d="M1.877,3.873A2.056,2.056,0,0,1,3.952,1.838H4.9a2.1,2.1,0,0,0,1.462-.591L7.018.6A2.106,2.106,0,0,1,9.954.592h0L9.963.6l.661.648a2.1,2.1,0,0,0,1.462.591h.943a2.055,2.055,0,0,1,2.076,2.034V4.8a2.014,2.014,0,0,0,.6,1.434l.661.648a2.006,2.006,0,0,1,.009,2.877h0l-.008.008-.661.648a2.008,2.008,0,0,0-.6,1.432v.925A2.054,2.054,0,0,1,13.03,14.8h-.946a2.1,2.1,0,0,0-1.462.592l-.661.647a2.105,2.105,0,0,1-2.934.011l0,0-.008-.008-.66-.647A2.1,2.1,0,0,0,4.894,14.8H3.952a2.054,2.054,0,0,1-2.075-2.033v-.927a2.009,2.009,0,0,0-.6-1.432l-.66-.648A2,2,0,0,1,.6,6.887l0,0,.008-.008.66-.648a2.013,2.013,0,0,0,.6-1.434V3.873" transform="translate(0 0)"/></g><path class="b" d="M1688.98,777.434l2.912,3.392,5.939-4.558" transform="translate(-1684.915 -770.226)"/></svg>