<svg xmlns="http://www.w3.org/2000/svg" width="24.944" height="30.346" viewBox="0 0 24.944 30.346"><defs><style>.a,.b{fill:none;stroke-linecap:round;stroke-linejoin:round;stroke-miterlimit:10;}.b{stroke:#000;stroke-width:2px;}.c{fill:#fa153c;}.d,.e{stroke:none;}.e{fill:#000;}</style></defs><g transform="translate(-1721.528 -49.839)"><g transform="translate(1721.528 49.839)"><g class="a" transform="translate(0 0)"><path class="d" d="M12.472,23.253c8.274,0,12.1-1.061,12.472-5.322,0-4.258-2.669-3.984-2.669-9.208,0-4.081-3.868-8.723-9.8-8.723s-9.8,4.643-9.8,8.723C2.669,13.947,0,13.673,0,17.931.371,22.208,4.2,23.253,12.472,23.253Z"/><path class="e" d="M 12.47200107574463 21.2531566619873 C 16.69589042663574 21.2531566619873 19.30842018127441 20.96769714355469 20.94295120239258 20.32755661010742 C 22.26201820373535 19.81096839904785 22.81146621704102 19.13285636901855 22.94353294372559 17.84243011474609 C 22.92856597900391 16.43982887268066 22.55578994750977 15.8193826675415 21.99737167358398 14.88985633850098 C 21.23011016845703 13.61269664764404 20.27522087097168 12.02323627471924 20.27522087097168 8.723226547241211 C 20.27522087097168 7.199116230010986 19.49991035461426 5.531176567077637 18.20126152038574 4.261496543884277 C 16.70964050292969 2.803146362304688 14.67495059967041 1.999996423721313 12.47200107574463 1.999996423721313 C 10.26905155181885 1.999996423721313 8.234360694885254 2.803146362304688 6.742741107940674 4.261496543884277 C 5.444090843200684 5.531176567077637 4.668781280517578 7.199116230010986 4.668781280517578 8.723226547241211 C 4.668781280517578 12.02323627471924 3.71389102935791 13.61269664764404 2.946631193161011 14.88985633850098 C 2.388211727142334 15.8193826675415 2.015436410903931 16.43984031677246 2.00046968460083 17.84244155883789 C 2.132964372634888 19.13837623596191 2.682263851165771 19.81799125671387 4.000561237335205 20.33297729492188 C 5.629631042480469 20.9693660736084 8.242321014404297 21.2531566619873 12.47200107574463 21.2531566619873 M 12.47200107574463 23.2531566619873 C 4.199060916900635 23.2531566619873 0.3711610734462738 22.20777702331543 1.075744648915133e-06 17.93107604980469 C 1.075744648915133e-06 13.67341613769531 2.668781042098999 13.94720649719238 2.668781042098999 8.723226547241211 C 2.668781042098999 4.642726421356201 6.536460876464844 -3.576355084078386e-06 12.47200107574463 -3.576355084078386e-06 C 18.40754127502441 -3.576355084078386e-06 22.27522087097168 4.642726421356201 22.27522087097168 8.723226547241211 C 22.27522087097168 13.94720649719238 24.94400024414062 13.67341613769531 24.94400024414062 17.93107604980469 C 24.57432174682617 22.19166564941406 20.74641036987305 23.2531566619873 12.47200107574463 23.2531566619873 Z"/></g><path class="b" d="M7.145,0A4.644,4.644,0,0,1,0,0" transform="translate(8.832 27.669)"/></g><circle class="c" cx="4.236" cy="4.236" r="4.236" transform="translate(1736.5 49.839)"/></g></svg>