<svg xmlns="http://www.w3.org/2000/svg" width="23.879" height="27.925" viewBox="0 0 23.879 27.925">
  <g id="Paper" transform="translate(0.75 0.75)">
    <path id="Stroke_1" data-name="Stroke 1" d="M15.091,0H5.518A5.5,5.5,0,0,0,0,5.366V20.78a5.509,5.509,0,0,0,5.384,5.627c.045,0,.088,0,.132,0h11.5a5.592,5.592,0,0,0,5.366-5.627V7.591Z" transform="translate(0 0.017)" fill="none" stroke="#000" stroke-linecap="round" stroke-linejoin="round" stroke-miterlimit="10" stroke-width="1.5"/>
    <path id="Stroke_3" data-name="Stroke 3" d="M0,0V4.186A3.7,3.7,0,0,0,3.695,7.891H7.659" transform="translate(14.713)" fill="none" stroke="#000" stroke-linecap="round" stroke-linejoin="round" stroke-miterlimit="10" stroke-width="1.5"/>
    <path id="Stroke_5" data-name="Stroke 5" d="M7.77.5H0" transform="translate(6.674 17.642)" fill="none" stroke="#000" stroke-linecap="round" stroke-linejoin="round" stroke-miterlimit="10" stroke-width="1.5"/>
    <path id="Stroke_7" data-name="Stroke 7" d="M4.829.5H0" transform="translate(6.672 12.243)" fill="none" stroke="#000" stroke-linecap="round" stroke-linejoin="round" stroke-miterlimit="10" stroke-width="1.5"/>
  </g>
</svg>
