<svg xmlns="http://www.w3.org/2000/svg" viewBox="0 0 471.13 86.44"><title>Logotipo</title><g id="Camada_2" data-name="Camada 2"><g id="Camada_1-2" data-name="Camada 1"><path d="M133.13,58.23h0a2.46,2.46,0,0,1-2.46-2.46V52.08a2.46,2.46,0,0,0-2.46-2.46H105.68a2.46,2.46,0,0,0-2.46,2.46v3.69a2.46,2.46,0,0,1-2.46,2.46h0a2.46,2.46,0,0,1-2.46-2.46V32.42A2.46,2.46,0,0,1,100.76,30h24.68A10.14,10.14,0,0,1,135.58,40.1v1.84a5.76,5.76,0,0,1-1.21,3.62,2.57,2.57,0,0,0,0,3.21,5.82,5.82,0,0,1,1.21,3.62v3.38A2.44,2.44,0,0,1,133.13,58.23Zm-2.45-16V37.34a2.46,2.46,0,0,0-2.46-2.46H105.69a2.46,2.46,0,0,0-2.46,2.46v4.92a2.46,2.46,0,0,0,2.46,2.46h22.53A2.47,2.47,0,0,0,130.68,42.26Z"/><path d="M173.59,58.23H148.91a10.14,10.14,0,0,1-10.14-10.14v-8A10.14,10.14,0,0,1,148.91,30h24.68a2.46,2.46,0,0,1,2.46,2.46h0a2.46,2.46,0,0,1-2.46,2.46H146.14a2.46,2.46,0,0,0-2.46,2.46v1.84a2.46,2.46,0,0,0,2.46,2.46h27.45a2.46,2.46,0,0,1,2.46,2.46h0a2.46,2.46,0,0,1-2.46,2.46H146.14A2.46,2.46,0,0,0,143.68,49v1.84a2.46,2.46,0,0,0,2.46,2.46h27.45a2.46,2.46,0,0,1,2.46,2.46h0A2.46,2.46,0,0,1,173.59,58.23Z"/><path d="M214,46.56H186.59A2.46,2.46,0,0,0,184.13,49v6.76a2.46,2.46,0,0,1-2.46,2.46h0a2.46,2.46,0,0,1-2.46-2.46V40.11A10.14,10.14,0,0,1,189.35,30H214a2.46,2.46,0,0,1,2.46,2.46h0A2.46,2.46,0,0,1,214,34.89H186.58a2.46,2.46,0,0,0-2.46,2.46v1.84a2.46,2.46,0,0,0,2.46,2.46H214a2.46,2.46,0,0,1,2.46,2.46h0A2.44,2.44,0,0,1,214,46.56Z"/><path d="M254.5,58.23H229.82a10.14,10.14,0,0,1-10.14-10.14v-8A10.14,10.14,0,0,1,229.82,30H254.5A2.46,2.46,0,0,1,257,32.42h0a2.46,2.46,0,0,1-2.46,2.46H227.05a2.46,2.46,0,0,0-2.46,2.46v1.84a2.46,2.46,0,0,0,2.46,2.46H254.5A2.46,2.46,0,0,1,257,44.1h0a2.46,2.46,0,0,1-2.46,2.46H227.05A2.46,2.46,0,0,0,224.59,49v1.84a2.46,2.46,0,0,0,2.46,2.46H254.5A2.46,2.46,0,0,1,257,55.78h0A2.46,2.46,0,0,1,254.5,58.23Z"/><path d="M295,58.23h0a2.46,2.46,0,0,1-2.46-2.46V52.08A2.46,2.46,0,0,0,290,49.62H267.5A2.46,2.46,0,0,0,265,52.08v3.69a2.46,2.46,0,0,1-2.46,2.46h0a2.46,2.46,0,0,1-2.46-2.46V32.42A2.46,2.46,0,0,1,262.58,30h24.68A10.14,10.14,0,0,1,297.4,40.1v1.84a5.76,5.76,0,0,1-1.21,3.62,2.57,2.57,0,0,0,0,3.21,5.82,5.82,0,0,1,1.21,3.62v3.38A2.44,2.44,0,0,1,295,58.23Zm-2.46-16V37.34A2.46,2.46,0,0,0,290,34.88H267.5A2.46,2.46,0,0,0,265,37.34v4.92a2.46,2.46,0,0,0,2.46,2.46H290A2.47,2.47,0,0,0,292.49,42.26Z"/><path d="M336,58.23H310.11a9.52,9.52,0,0,1-9.52-9.52V39.48A9.52,9.52,0,0,1,310.11,30H336a1.84,1.84,0,0,1,1.84,1.84V33A1.84,1.84,0,0,1,336,34.88H307.34a1.84,1.84,0,0,0-1.84,1.84V39.8a1.84,1.84,0,0,0,1.84,1.84H336a1.84,1.84,0,0,1,1.84,1.84v1.24A1.84,1.84,0,0,1,336,46.56H307.34a1.84,1.84,0,0,0-1.84,1.84v3.08a1.84,1.84,0,0,0,1.84,1.84H336a1.84,1.84,0,0,1,1.84,1.84V56.4A1.85,1.85,0,0,1,336,58.23ZM323.62,26.89h0a1.82,1.82,0,0,1-1.51-.8l-1.32-1.92a1.84,1.84,0,0,0-3,0l-1.32,1.92a1.83,1.83,0,0,1-1.51.8h0A1.84,1.84,0,0,1,313.41,24l1.82-2.65a4.89,4.89,0,0,1,8.1,0L325.15,24A1.85,1.85,0,0,1,323.62,26.89Z"/><path d="M378.62,31.52V53.26a5.75,5.75,0,0,1-3.46,5.07,5.64,5.64,0,0,1-6-1.28l-21.9-22.23a.76.76,0,0,0-1.3.53V56.57a1.66,1.66,0,0,1-1.66,1.66h-1.68A1.59,1.59,0,0,1,341,56.64V34.93a5.76,5.76,0,0,1,3.46-5.07,5.66,5.66,0,0,1,6,1.27L372.23,53.2a.86.86,0,0,0,1.47-.6v-21A1.67,1.67,0,0,1,375.37,30h1.68A1.56,1.56,0,0,1,378.62,31.52Z"/><path d="M416.62,58.23H391.94A10.14,10.14,0,0,1,381.8,48.09v-8A10.14,10.14,0,0,1,391.94,30h24.68a2.46,2.46,0,0,1,2.46,2.46h0a2.46,2.46,0,0,1-2.46,2.46H389.17a2.46,2.46,0,0,0-2.46,2.46V50.86a2.46,2.46,0,0,0,2.46,2.46h27.45a2.46,2.46,0,0,1,2.46,2.46h0A2.46,2.46,0,0,1,416.62,58.23Z"/><path d="M423.27,58.23h0a2.46,2.46,0,0,1-2.46-2.46V32.42A2.46,2.46,0,0,1,423.27,30h0a2.46,2.46,0,0,1,2.46,2.46V55.77A2.46,2.46,0,0,1,423.27,58.23Z"/><path d="M468.62,58.23h0a2.52,2.52,0,0,1-2-1.06l-3.21-4.53a2.5,2.5,0,0,0-2-1.06h-23.1a2.52,2.52,0,0,0-2.06,1.07L433,57.16a2.52,2.52,0,0,1-2.06,1.07h0a2.52,2.52,0,0,1-2-4l15.64-21.89a6.57,6.57,0,0,1,5.22-2.87A6.48,6.48,0,0,1,455,32.36l15.69,21.88A2.51,2.51,0,0,1,468.62,58.23Zm-12.3-15.52-4.5-6.46a2.51,2.51,0,0,0-4.12,0l-4.5,6.46a2.51,2.51,0,0,0,2.06,4h9A2.51,2.51,0,0,0,456.32,42.71Z"/><path d="M66.62,45.22A30.74,30.74,0,0,1,7.11,53.6a2.19,2.19,0,0,1,2.07-2.93h0a2.2,2.2,0,0,1,2.07,1.46A26.35,26.35,0,1,0,48,19.54,2.2,2.2,0,0,1,46.85,17h0A2.2,2.2,0,0,1,50,15.62,30.7,30.7,0,0,1,66.62,45.22Z"/><path d="M71.15,76.85a48.85,48.85,0,0,1-12.38,9.33A2.2,2.2,0,0,1,56,85.61h0a2.18,2.18,0,0,1,.67-3.3A44.46,44.46,0,0,0,68,73.78a2.17,2.17,0,0,1,3.27.17h0A2.18,2.18,0,0,1,71.15,76.85Z"/><path d="M11.75,83.12h0a2.19,2.19,0,0,1-2.94.46,49.35,49.35,0,0,1-7.21-5.9,2.18,2.18,0,0,1-.16-2.93h0a2.2,2.2,0,0,1,3.27-.17,44.19,44.19,0,0,0,6.54,5.34A2.19,2.19,0,0,1,11.75,83.12Z"/><path d="M68.52,63.14a2.48,2.48,0,0,1,.13,3,40.07,40.07,0,0,1-65.33.06,2.47,2.47,0,0,1,.18-3.08h0a2.47,2.47,0,0,1,3.85.24,35.14,35.14,0,0,0,57.25,0,2.46,2.46,0,0,1,3.91-.18Z"/><path d="M6.58,4c-1,.76-2,1.57-3,2.41A2.18,2.18,0,0,1,.4,6h0A2.2,2.2,0,0,1,.74,3.05C1.78,2.13,2.85,1.26,4,.43a2.2,2.2,0,0,1,3.11.5h0A2.19,2.19,0,0,1,6.58,4Z"/><path d="M30.23,17.26A26.38,26.38,0,0,0,10.6,35.86a2.2,2.2,0,0,1-2.12,1.63h0a2.19,2.19,0,0,1-2.12-2.77A30.77,30.77,0,0,1,28.73,13.11C32.4,12.52,32.4,16.91,30.23,17.26Z"/><path d="M26,9.3a35.17,35.17,0,0,0-15.87,9.92A2.45,2.45,0,0,1,6.27,19l0,0a2.44,2.44,0,0,1,.19-3.06A40,40,0,0,1,24.59,4.55,2.43,2.43,0,0,1,27.44,5.8l0,.05A2.45,2.45,0,0,1,26,9.3Z"/><path d="M66.25,20.06h0A2.47,2.47,0,0,1,62.54,20a35.22,35.22,0,0,0-5.05-4.79,2.47,2.47,0,0,1-.33-3.6h0a2.47,2.47,0,0,1,3.33-.32,40.37,40.37,0,0,1,5.81,5.51A2.45,2.45,0,0,1,66.25,20.06Z"/><path d="M76,43a39.66,39.66,0,0,1-.39,5.59,2.46,2.46,0,0,1-2.44,2.1h0a2.47,2.47,0,0,1-2.44-2.82A35.42,35.42,0,0,0,71.09,43c0-.95,0-1.89-.11-2.82a2.46,2.46,0,0,1,2.46-2.66h0a2.49,2.49,0,0,1,2.47,2.3C76,40.84,76,41.9,76,43Z"/><path d="M57.89,41.83A22,22,0,1,0,34.82,64.89,22,22,0,0,0,57.89,41.83Zm-4.4,2.29A17.57,17.57,0,1,1,34.82,25.44,17.62,17.62,0,0,1,53.49,44.12Z"/><path d="M48.89,41.93a13,13,0,1,0-14,14A13,13,0,0,0,48.89,41.93Z"/></g></g></svg>