<svg xmlns="http://www.w3.org/2000/svg" width="26.716" height="27.4" viewBox="0 0 26.716 27.4">
  <g id="Category" transform="translate(0.75 0.75)">
    <path id="Stroke_1" data-name="Stroke 1" d="M0,5.036C0,1.259.039,0,4.9,0s4.9,1.259,4.9,5.036.016,5.036-4.9,5.036S0,8.813,0,5.036Z" transform="translate(0 0)" fill="#fff" stroke="#fff" stroke-linecap="round" stroke-linejoin="round" stroke-miterlimit="10" stroke-width="1.5"/>
    <path id="Stroke_3" data-name="Stroke 3" d="M0,5.036C0,1.259.039,0,4.9,0s4.9,1.259,4.9,5.036.016,5.036-4.9,5.036S0,8.813,0,5.036Z" transform="translate(15.41 0)" fill="#fff" stroke="#fff" stroke-linecap="round" stroke-linejoin="round" stroke-miterlimit="10" stroke-width="1.5"/>
    <path id="Stroke_5" data-name="Stroke 5" d="M0,5.036C0,1.259.039,0,4.9,0s4.9,1.259,4.9,5.036.016,5.036-4.9,5.036S0,8.813,0,5.036Z" transform="translate(0 15.827)" fill="#fff" stroke="#fff" stroke-linecap="round" stroke-linejoin="round" stroke-miterlimit="10" stroke-width="1.5"/>
    <path id="Stroke_7" data-name="Stroke 7" d="M0,5.036C0,1.259.039,0,4.9,0s4.9,1.259,4.9,5.036.016,5.036-4.9,5.036S0,8.813,0,5.036Z" transform="translate(15.41 15.827)" fill="#fff" stroke="#fff" stroke-linecap="round" stroke-linejoin="round" stroke-miterlimit="10" stroke-width="1.5"/>
  </g>
</svg>
