<svg xmlns="http://www.w3.org/2000/svg" xmlns:xlink="http://www.w3.org/1999/xlink" width="76" height="54" viewBox="0 0 76 54"><defs><style>.a{fill:#158ffa;}.b{fill:#fff;}.c{filter:url(#c);}.d{filter:url(#a);}</style><filter id="a" x="0" y="0" width="76" height="54" filterUnits="userSpaceOnUse"><feOffset dy="4" input="SourceAlpha"/><feGaussianBlur stdDeviation="4" result="b"/><feFlood flood-color="#2c2738" flood-opacity="0.039"/><feComposite operator="in" in2="b"/><feComposite in="SourceGraphic"/></filter><filter id="c" x="24" y="3" width="48" height="48" filterUnits="userSpaceOnUse"><feOffset dy="4" input="SourceAlpha"/><feGaussianBlur stdDeviation="4" result="d"/><feFlood flood-color="#2c2738" flood-opacity="0.2"/><feComposite operator="in" in2="d"/><feComposite in="SourceGraphic"/></filter></defs><g transform="translate(12 8)"><g class="d" transform="matrix(1, 0, 0, 1, -12, -8)"><path class="a" d="M15,0H37a15,15,0,0,1,0,30H15A15,15,0,0,1,15,0Z" transform="translate(12 8)"/></g><g class="c" transform="matrix(1, 0, 0, 1, -12, -8)"><path class="b" d="M12,0A12,12,0,1,1,0,12,12,12,0,0,1,12,0Z" transform="translate(36 11)"/></g></g></svg>