<svg xmlns="http://www.w3.org/2000/svg" xmlns:xlink="http://www.w3.org/1999/xlink" width="76" height="54" viewBox="0 0 76 54"><defs><style>.a{fill:#fff;stroke-miterlimit:10;}.b,.c{stroke:none;}.c{fill:#c1c1c1;}.d{filter:url(#c);}.e{filter:url(#a);}</style><filter id="a" x="0" y="0" width="76" height="54" filterUnits="userSpaceOnUse"><feOffset dy="4" input="SourceAlpha"/><feGaussianBlur stdDeviation="4" result="b"/><feFlood flood-color="#2c2738" flood-opacity="0.078"/><feComposite operator="in" in2="b"/><feComposite in="SourceGraphic"/></filter><filter id="c" x="4" y="3" width="48" height="48" filterUnits="userSpaceOnUse"><feOffset dy="4" input="SourceAlpha"/><feGaussianBlur stdDeviation="4" result="d"/><feFlood flood-color="#2c2738" flood-opacity="0.2"/><feComposite operator="in" in2="d"/><feComposite in="SourceGraphic"/></filter></defs><g transform="translate(12 8)"><g class="e" transform="matrix(1, 0, 0, 1, -12, -8)"><g class="a" transform="translate(12 8)"><path class="b" d="M 37 29.5 L 15 29.5 C 11.12691020965576 29.5 7.485640048980713 27.99173927307129 4.746950149536133 25.25304985046387 C 2.008260011672974 22.51436042785645 0.5 18.87309074401855 0.5 15 C 0.5 11.12691020965576 2.008260011672974 7.485640048980713 4.746950149536133 4.746950149536133 C 7.485640048980713 2.008260011672974 11.12691020965576 0.5 15 0.5 L 37 0.5 C 40.87308883666992 0.5 44.51435852050781 2.008260011672974 47.2530517578125 4.746950149536133 C 49.99174118041992 7.485640048980713 51.5 11.12691020965576 51.5 15 C 51.5 18.87309074401855 49.99174118041992 22.51436042785645 47.2530517578125 25.25304985046387 C 44.51435852050781 27.99173927307129 40.87308883666992 29.5 37 29.5 Z"/><path class="c" d="M 15 1 C 11.26047134399414 1 7.744758605957031 2.456249237060547 5.100509643554688 5.100509643554688 C 2.456249237060547 7.744760513305664 1 11.26046943664551 1 15 C 1 18.73952865600586 2.456249237060547 22.25523948669434 5.100509643554688 24.89949035644531 C 7.744758605957031 27.54375076293945 11.26047134399414 29 15 29 L 37 29 C 40.73952865600586 29 44.25524139404297 27.54375076293945 46.89949035644531 24.89949035644531 C 49.54375076293945 22.25523948669434 51 18.73952865600586 51 15 C 51 11.26046943664551 49.54375076293945 7.744760513305664 46.89949035644531 5.100509643554688 C 44.25524139404297 2.456249237060547 40.73952865600586 1 37 1 L 15 1 M 15 0 L 37 0 C 45.28427124023438 0 52 6.715730667114258 52 15 C 52 23.28426933288574 45.28427124023438 30 37 30 L 15 30 C 6.715728759765625 30 0 23.28426933288574 0 15 C 0 6.715730667114258 6.715728759765625 0 15 0 Z"/></g></g><g class="d" transform="matrix(1, 0, 0, 1, -12, -8)"><g class="a" transform="translate(16 11)"><path class="b" d="M 12 23.5 C 8.928239822387695 23.5 6.040329933166504 22.30378913879395 3.868269920349121 20.13172912597656 C 1.696210026741028 17.95966911315918 0.5 15.0717601776123 0.5 12 C 0.5 8.928239822387695 1.696210026741028 6.040329933166504 3.868269920349121 3.868269920349121 C 6.040329933166504 1.696210026741028 8.928239822387695 0.5 12 0.5 C 15.0717601776123 0.5 17.95966911315918 1.696210026741028 20.13172912597656 3.868269920349121 C 22.30378913879395 6.040329933166504 23.5 8.928239822387695 23.5 12 C 23.5 15.0717601776123 22.30378913879395 17.95966911315918 20.13172912597656 20.13172912597656 C 17.95966911315918 22.30378913879395 15.0717601776123 23.5 12 23.5 Z"/><path class="c" d="M 12 1 C 9.061790466308594 1 6.299449920654297 2.144199371337891 4.221820831298828 4.221820831298828 C 2.144199371337891 6.299449920654297 1 9.061790466308594 1 12 C 1 14.93820953369141 2.144199371337891 17.7005500793457 4.221820831298828 19.77817916870117 C 6.299449920654297 21.85580062866211 9.061790466308594 23 12 23 C 14.93820953369141 23 17.7005500793457 21.85580062866211 19.77817916870117 19.77817916870117 C 21.85580062866211 17.7005500793457 23 14.93820953369141 23 12 C 23 9.061790466308594 21.85580062866211 6.299449920654297 19.77817916870117 4.221820831298828 C 17.7005500793457 2.144199371337891 14.93820953369141 1 12 1 M 12 0 C 18.62742042541504 0 24 5.372579574584961 24 12 C 24 18.62742042541504 18.62742042541504 24 12 24 C 5.372579574584961 24 0 18.62742042541504 0 12 C 0 5.372579574584961 5.372579574584961 0 12 0 Z"/></g></g></g></svg>