<svg xmlns="http://www.w3.org/2000/svg" width="1142" height="70" viewBox="0 0 1142 70"><defs><style>.a{fill:#fff;}.b{fill:#2499ff;}.c{fill:#7c828a;font-size:18px;font-family:Poppins-Regular, Poppins;letter-spacing:0.03em;}</style></defs><g transform="translate(-408 -1020)"><rect class="a" width="1048" height="70" rx="6" transform="translate(408 1020)"/><rect class="b" width="76" height="70" rx="6" transform="translate(1474 1020)"/><text class="c" transform="translate(428 1062)"><tspan x="0" y="0">Escrever mensagem</tspan></text><g transform="translate(1494.809 1037.196)"><g transform="translate(2 2)"><path class="a" d="M29.524.92a2.859,2.859,0,0,0-2.933-.8L2.139,7.522a2.991,2.991,0,0,0-2.1,2.4A3.614,3.614,0,0,0,1.56,13.249l7.646,4.889a1.924,1.924,0,0,0,2.445-.305l8.755-9.165a1.085,1.085,0,0,1,1.611,0,1.241,1.241,0,0,1,0,1.686l-8.77,9.167a2.155,2.155,0,0,0-.293,2.558l4.672,8.034a2.881,2.881,0,0,0,2.523,1.5,3.035,3.035,0,0,0,.38-.016A3,3,0,0,0,23,29.4L30.254,3.99A3.193,3.193,0,0,0,29.524.92" transform="translate(0 0)"/></g></g></g></svg>