<?xml version="1.0" encoding="utf-8"?>
<!-- Generator: Adobe Illustrator 21.0.0, SVG Export Plug-In . SVG Version: 6.00 Build 0)  -->
<svg version="1.1" id="Camada_1" xmlns="http://www.w3.org/2000/svg" xmlns:xlink="http://www.w3.org/1999/xlink" x="0px" y="0px"
	 viewBox="0 0 28.4 22.3" style="enable-background:new 0 0 28.4 22.3;" xml:space="preserve">
<style type="text/css">
	.st0{fill:none;stroke:#FFFFFF;stroke-width:1.5;stroke-linecap:round;stroke-linejoin:round;stroke-miterlimit:10;}
</style>
<g id="_3_User" transform="translate(0.75 0.75)">
	<path id="Stroke_1" class="st0" d="M21.4,9c1.9-0.3,3.3-1.9,3.3-3.9c0-1.9-1.3-3.5-3.2-3.9"/>
	<path id="Stroke_3" class="st0" d="M23.8,13.6c1.8,0.3,3,0.9,3,2.2c0,0.9-0.7,1.7-1.5,1.9"/>
	<path id="Stroke_5" class="st0" d="M13.4,14.1c-4.3,0-7.9,0.7-7.9,3.3s3.6,3.3,7.9,3.3c4.3,0,7.9-0.7,7.9-3.3S17.7,14.1,13.4,14.1z
		"/>
	<path id="Stroke_7" class="st0" d="M13.4,10.4c2.8,0,5.1-2.4,5.1-5.2c0-2.8-2.2-5.2-5.1-5.2c-2.8,0-5.1,2.4-5.1,5.2
		C8.3,8,10.6,10.3,13.4,10.4C13.4,10.4,13.4,10.4,13.4,10.4L13.4,10.4z"/>
	<path id="Stroke_9" class="st0" d="M5.5,9C3.6,8.7,2.2,7.1,2.2,5.2c0-1.9,1.3-3.5,3.2-3.9"/>
	<path id="Stroke_11" class="st0" d="M3,13.6c-1.8,0.3-3,0.9-3,2.2c0,0.9,0.7,1.7,1.5,1.9"/>
</g>
</svg>
