<svg xmlns="http://www.w3.org/2000/svg" width="28.355" height="22.272" viewBox="0 0 28.355 22.272">
  <g id="_3_User" data-name="3 User" transform="translate(0.75 0.75)">
    <path id="Stroke_1" data-name="Stroke 1" d="M0,7.712A3.875,3.875,0,0,0,3.275,3.853,3.877,3.877,0,0,0,.087,0" transform="translate(21.378 1.317)" fill="none" stroke="#000" stroke-linecap="round" stroke-linejoin="round" stroke-miterlimit="10" stroke-width="1.5"/>
    <path id="Stroke_3" data-name="Stroke 3" d="M0,0C1.79.274,3.039.917,3.039,2.241A2.019,2.019,0,0,1,1.5,4.117" transform="translate(23.816 13.585)" fill="none" stroke="#000" stroke-linecap="round" stroke-linejoin="round" stroke-miterlimit="10" stroke-width="1.5"/>
    <path id="Stroke_5" data-name="Stroke 5" d="M7.894,0C3.636,0,0,.662,0,3.3S3.614,6.625,7.894,6.625c4.258,0,7.893-.655,7.893-3.3S12.174,0,7.894,0Z" transform="translate(5.534 14.147)" fill="none" stroke="#000" stroke-linecap="round" stroke-linejoin="round" stroke-miterlimit="10" stroke-width="1.5"/>
    <path id="Stroke_7" data-name="Stroke 7" d="M5.059,10.376a5.124,5.124,0,0,0,5.059-5.188A5.125,5.125,0,0,0,5.059,0,5.125,5.125,0,0,0,0,5.188a5.105,5.105,0,0,0,5.022,5.188Z" transform="translate(8.369 0)" fill="none" stroke="#000" stroke-linecap="round" stroke-linejoin="round" stroke-miterlimit="10" stroke-width="1.5"/>
    <path id="Stroke_9" data-name="Stroke 9" d="M3.275,7.712A3.874,3.874,0,0,1,0,3.853,3.877,3.877,0,0,1,3.187,0" transform="translate(2.203 1.317)" fill="none" stroke="#000" stroke-linecap="round" stroke-linejoin="round" stroke-miterlimit="10" stroke-width="1.5"/>
    <path id="Stroke_11" data-name="Stroke 11" d="M3.039,0C1.249.274,0,.917,0,2.241A2.019,2.019,0,0,0,1.539,4.117" transform="translate(0 13.585)" fill="none" stroke="#000" stroke-linecap="round" stroke-linejoin="round" stroke-miterlimit="10" stroke-width="1.5"/>
  </g>
</svg>
