<svg xmlns="http://www.w3.org/2000/svg" xmlns:xlink="http://www.w3.org/1999/xlink" width="30" height="30" viewBox="0 0 30 30"><defs><style>.a{opacity:0.5;}.b{fill:none;}.c{clip-path:url(#a);}</style><clipPath id="a"><path d="M12.293,13.707,7,8.414,1.707,13.707A1,1,0,0,1,.293,12.293L5.586,7,.293,1.707A1,1,0,0,1,1.707.293L7,5.586,12.293.293a1,1,0,0,1,1.414,1.415L8.414,7l5.293,5.293a1,1,0,1,1-1.414,1.414Z" transform="translate(8 8)"/></clipPath></defs><g class="a"><path class="b" d="M0,0H30V30H0Z"/><path d="M12.293,13.707,7,8.414,1.707,13.707A1,1,0,0,1,.293,12.293L5.586,7,.293,1.707A1,1,0,0,1,1.707.293L7,5.586,12.293.293a1,1,0,0,1,1.414,1.415L8.414,7l5.293,5.293a1,1,0,1,1-1.414,1.414Z" transform="translate(8 8)"/><g class="c"><path d="M0,0H30V30H0Z"/></g></g></svg>