<?xml version="1.0" encoding="utf-8"?>
<!-- Generator: Adobe Illustrator 21.0.0, SVG Export Plug-In . SVG Version: 6.00 Build 0)  -->
<svg version="1.1" id="Camada_1" xmlns="http://www.w3.org/2000/svg" xmlns:xlink="http://www.w3.org/1999/xlink" x="0px" y="0px"
	 viewBox="0 0 24.9 30.3" style="enable-background:new 0 0 24.9 30.3;" xml:space="preserve">
<style type="text/css">
	.st0{fill:none;}
	.st1{fill:none;stroke:#000000;stroke-width:2;stroke-linecap:round;stroke-linejoin:round;stroke-miterlimit:10;}
	.st2{display:none;fill:#FA153C;}
</style>
<g transform="translate(1721.528 49.839)">
	<g transform="translate(0 0)">
		<path class="st0" d="M-1709.1-26.6c8.3,0,12.1-1.1,12.5-5.3c0-4.3-2.7-4-2.7-9.2c0-4.1-3.9-8.7-9.8-8.7s-9.8,4.6-9.8,8.7
			c0,5.2-2.7,5-2.7,9.2C-1721.2-27.6-1717.3-26.6-1709.1-26.6z"/>
		<path d="M-1709.1-28.6c4.2,0,6.8-0.3,8.5-0.9c1.3-0.5,1.9-1.2,2-2.5c0-1.4-0.4-2-0.9-3c-0.8-1.3-1.7-2.9-1.7-6.2
			c0-1.5-0.8-3.2-2.1-4.5c-1.5-1.5-3.5-2.3-5.7-2.3c-2.2,0-4.2,0.8-5.7,2.3c-1.3,1.3-2.1,2.9-2.1,4.5c0,3.3-1,4.9-1.7,6.2
			c-0.6,0.9-0.9,1.5-0.9,3c0.1,1.3,0.7,2,2,2.5C-1715.9-28.9-1713.3-28.6-1709.1-28.6 M-1709.1-26.6c-8.3,0-12.1-1-12.5-5.3
			c0-4.3,2.7-4,2.7-9.2c0-4.1,3.9-8.7,9.8-8.7s9.8,4.6,9.8,8.7c0,5.2,2.7,5,2.7,9.2C-1697-27.6-1700.8-26.6-1709.1-26.6z"/>
	</g>
	<path class="st1" d="M-1705.6-22.2c-1.6,2-4.6,2.2-6.5,0.6c-0.2-0.2-0.4-0.4-0.6-0.6"/>
</g>
<circle class="st2" cx="19.2" cy="4.2" r="4.2"/>
</svg>
