<svg xmlns="http://www.w3.org/2000/svg" width="25.227" height="27.559" viewBox="0 0 25.227 27.559">
  <g id="Setting" transform="translate(0.905 0.75)">
    <path id="Path_33946" d="M23.089,7.247l-.82-1.464a2.482,2.482,0,0,0-3.436-.956h0a2.446,2.446,0,0,1-1.9.274A2.517,2.517,0,0,1,15.4,3.909a2.537,2.537,0,0,1-.338-1.241h0A2.635,2.635,0,0,0,14.347.786,2.485,2.485,0,0,0,12.539,0H10.887A2.473,2.473,0,0,0,9.109.76a2.62,2.62,0,0,0-.73,1.833h0A2.556,2.556,0,0,1,5.859,5.15,2.36,2.36,0,0,1,4.653,4.8h0a2.482,2.482,0,0,0-3.436.956L.337,7.247a2.635,2.635,0,0,0,.916,3.537h0a2.608,2.608,0,0,1,1.26,2.246,2.608,2.608,0,0,1-1.26,2.246h0A2.623,2.623,0,0,0,.337,18.8h0l.832,1.477a2.534,2.534,0,0,0,1.515,1.238,2.457,2.457,0,0,0,1.921-.232h0a2.434,2.434,0,0,1,1.9-.263,2.507,2.507,0,0,1,1.521,1.206,2.537,2.537,0,0,1,.338,1.241h0a2.558,2.558,0,0,0,2.52,2.594h1.652a2.557,2.557,0,0,0,2.52-2.581h0a2.62,2.62,0,0,1,.735-1.838,2.472,2.472,0,0,1,1.785-.756,2.513,2.513,0,0,1,1.206.347h0a2.481,2.481,0,0,0,3.436-.943h0l.868-1.489a2.647,2.647,0,0,0,.256-1.964,2.573,2.573,0,0,0-1.173-1.572h0A2.573,2.573,0,0,1,21,13.691a2.647,2.647,0,0,1,.256-1.964,2.509,2.509,0,0,1,.916-.943h0a2.635,2.635,0,0,0,.916-3.524h0Z" transform="translate(0 0)" fill="none" stroke="#000" stroke-linecap="round" stroke-linejoin="round" stroke-miterlimit="10" stroke-width="1.5"/>
    <ellipse id="Ellipse_737" cx="3.472" cy="3.574" rx="3.472" ry="3.574" transform="translate(8.246 9.456)" fill="none" stroke="#000" stroke-linecap="round" stroke-linejoin="round" stroke-miterlimit="10" stroke-width="1.5"/>
  </g>
</svg>
