<?xml version="1.0" encoding="utf-8"?>
<!-- Generator: Adobe Illustrator 21.0.0, SVG Export Plug-In . SVG Version: 6.00 Build 0)  -->
<svg version="1.1" id="Camada_1" xmlns="http://www.w3.org/2000/svg" xmlns:xlink="http://www.w3.org/1999/xlink" x="0px" y="0px"
	 viewBox="0 0 25.2 27.6" style="enable-background:new 0 0 25.2 27.6;" xml:space="preserve">
<style type="text/css">
	.st0{fill:none;stroke:#FFFFFF;stroke-width:1.5;stroke-linecap:round;stroke-linejoin:round;stroke-miterlimit:10;}
</style>
<g id="Setting" transform="translate(0.905 0.75)">
	<path id="Path_33946" class="st0" d="M23.1,7.2l-0.8-1.5c-0.7-1.2-2.2-1.7-3.4-1c0,0,0,0-0.1,0l0,0c-0.6,0.3-1.3,0.4-1.9,0.3
		c-0.6-0.2-1.2-0.6-1.5-1.2c-0.2-0.4-0.3-0.8-0.3-1.2l0,0c0-0.7-0.2-1.4-0.7-1.9C13.9,0.3,13.2,0,12.5,0h-1.7
		c-0.7,0-1.3,0.3-1.8,0.8C8.6,1.3,8.4,1.9,8.4,2.6l0,0c0,1.4-1.1,2.5-2.5,2.6C5.4,5.1,5,5,4.7,4.8l0,0C3.5,4.1,1.9,4.5,1.3,5.7
		c0,0,0,0,0,0.1L0.3,7.2C-0.4,8.5,0,10,1.3,10.8l0,0C2,11.3,2.5,12.1,2.5,13c0,0.9-0.5,1.8-1.3,2.2l0,0C0,16-0.4,17.6,0.3,18.8l0,0
		l0.8,1.5c0.3,0.6,0.9,1,1.5,1.2c0.6,0.2,1.3,0.1,1.9-0.2l0,0c0.6-0.3,1.3-0.4,1.9-0.3c0.6,0.2,1.2,0.6,1.5,1.2
		c0.2,0.4,0.3,0.8,0.3,1.2l0,0c0,1.4,1.1,2.6,2.5,2.6h1.7c1.4,0,2.5-1.2,2.5-2.6l0,0c0-0.7,0.3-1.3,0.7-1.8c0.5-0.5,1.1-0.8,1.8-0.8
		c0.4,0,0.8,0.1,1.2,0.3l0,0c1.2,0.7,2.7,0.3,3.4-0.9c0,0,0,0,0-0.1l0,0l0.9-1.5c0.3-0.6,0.4-1.3,0.3-2c-0.2-0.7-0.6-1.2-1.2-1.6
		l0,0c-0.6-0.3-1-0.9-1.2-1.6c-0.2-0.7-0.1-1.4,0.3-2c0.2-0.4,0.5-0.7,0.9-0.9l0,0C23.4,10,23.8,8.5,23.1,7.2L23.1,7.2L23.1,7.2z"/>
	<ellipse id="Ellipse_737" class="st0" cx="11.7" cy="13" rx="3.5" ry="3.6"/>
</g>
</svg>
