<svg xmlns="http://www.w3.org/2000/svg" width="155.125" height="158.712" viewBox="0 0 155.125 158.712">
<defs>
<style>.a{fill:#10ec7f;font-size:29px;font-family:Poppins-Medium, Poppins;font-weight:500;letter-spacing:0.02em;}.b,.c,.d,.e{fill:none;}.c{stroke:#ffaa3b;}.c,.d,.e{stroke-linecap:round;stroke-width:15px;}.d{stroke:#ff3b3b;}.e{stroke:#15fa88;}.f,.g{stroke:none;}.g{fill:#e1e5eb;}</style>
</defs>

<g transform="translate(-731.469 -888.352)"><text class="a" transform="translate(778 974)">

<tspan x="0" y="0">74%</tspan></text><g class="b" transform="translate(731.469 888.469)">

<path class="f" d="M75.531,0A75.531,75.531,0,1,1,0,75.531,75.531,75.531,0,0,1,75.531,0Z"/>

<path class="g" d="M 75.5308837890625 14.99998474121094 C 42.15401458740234 14.99998474121094 14.99998474121094 42.15401458740234 14.99998474121094 75.5308837890625 C 14.99998474121094 108.90771484375 42.15401458740234 136.0617523193359 75.5308837890625 136.0617523193359 C 108.90771484375 136.0617523193359 136.0617523193359 108.90771484375 136.0617523193359 75.5308837890625 C 136.0617523193359 42.15401458740234 108.90771484375 14.99998474121094 75.5308837890625 14.99998474121094 M 75.5308837890625 -1.52587890625e-05 C 117.2454528808594 -1.52587890625e-05 151.0617523193359 33.81631469726562 151.0617523193359 75.5308837890625 C 151.0617523193359 117.2454528808594 117.2454528808594 151.0617523193359 75.5308837890625 151.0617523193359 C 33.81631469726562 151.0617523193359 -1.52587890625e-05 117.2454528808594 -1.52587890625e-05 75.5308837890625 C -1.52587890625e-05 33.81631469726562 33.81631469726562 -1.52587890625e-05 75.5308837890625 -1.52587890625e-05 Z"/>
</g>
<path class="c" d="M47.2,7.487,40.815,4.694l-2.945-1-2.3-.652L33,2.286l-2.547-.635L27.7,1.156,25.076.77,23.119.507l-3-.21L16.8.278,14.305.3,12.514.464,8.148.915l-3.393.447L0,2.3" transform="translate(839.794 1026.25) rotate(166)"/>

<path class="d" d="M70.882,24.6l-2.989-3.347L64.417,18l-2.931-2.724-3.334-2.519-3.464-2.314-2.315-1.4L49.141,7.195l-3.4-1.559-4.5-1.751L36.157,2.3l-4.313-.983-4.5-.767L24.735.264,22.1.12,17.648,0,14.687.12,12.426.264,10.871.412,7.017.935,3.87,1.559,0,2.634" transform="translate(877.466 958.999) rotate(101)"/>

<path class="e" d="M120.95,65.112l-.72-6.223-.928-4.869-.871-3.872-.783-2.567L117.02,45.7l-.915-2.68-1.333-3.111-.944-2.2-1.172-2.231-1.277-2.3-1.636-2.692-1.518-2.445-1.454-1.984-1.492-1.989-1.525-1.984-2.6-2.906-3.435-3.236-2.881-2.406-3.374-2.61L88.339,8.814,85.773,7.238,82.737,5.569,79.479,4.041,75.171,2.324,70.305.773,66.176-.191,61.869-.943l-2.5-.282-2.522-.141-4.263-.118-2.835.117-2.164.141L46.1-1.08l-3.69.512L39.393.044,35.688.937" transform="translate(754.688 897.341)"/>
</g>
</svg>